<svg width="71" height="63" viewBox="0 0 71 63" fill="none" xmlns="http://www.w3.org/2000/svg">
<rect width="71" height="63" fill="#1E1E1E"/>
<rect width="1440" height="1024" transform="translate(-194 -271)" fill="white"/>
<rect x="-75.5" y="-21.5" width="222" height="310" fill="white" stroke="#EF4040" stroke-width="5"/>
<path d="M20.554 61.1465H15.0587V52.4181C15.0587 52.2611 14.9978 52.1105 14.8895 51.9994C14.7811 51.8884 14.6341 51.826 14.4809 51.826H7.56406C7.40745 51.8257 7.25668 51.8869 7.14276 51.9971C7.02884 52.1072 6.96041 52.2579 6.95155 52.4181V61.1465H5.97499V62.9763H65.0308V61.1465H64.0542V52.4181C64.0454 52.2579 63.9769 52.1072 63.863 51.9971C63.7491 51.8869 63.5983 51.8257 63.4417 51.826H56.5538C56.4755 51.8219 56.3973 51.8343 56.3238 51.8623C56.2503 51.8902 56.1831 51.9332 56.1264 51.9886C56.0696 52.044 56.0245 52.1106 55.9936 52.1845C55.9628 52.2583 55.947 52.3378 55.9471 52.4181V61.1465H43.0149V48.806C43.0157 48.6943 42.9946 48.5836 42.9529 48.4805C42.9112 48.3773 42.8498 48.2837 42.7722 48.2053C42.6946 48.1269 42.6025 48.0653 42.5013 48.024C42.4 47.9827 42.2917 47.9627 42.1828 47.9651H28.7479C28.5318 47.9651 28.3245 48.0531 28.1717 48.2096C28.019 48.3662 27.9331 48.5786 27.9331 48.8V61.1406H18.7743V19.4645H1.73361V61.1465H6.00388V62.9763H0.814831C0.598743 62.9763 0.391505 62.8883 0.238707 62.7318C0.0859098 62.5752 6.90721e-05 62.3628 6.90721e-05 62.1414V18.9493C-0.00164967 18.7882 0.0287241 18.6285 0.089332 18.4798C0.14994 18.3311 0.239507 18.1967 0.352555 18.0848C0.461627 17.9707 0.592079 17.8804 0.736069 17.8194C0.880058 17.7583 1.03461 17.7277 1.19043 17.7295H18.7743V1.3326C18.8059 0.991935 18.9531 0.673432 19.1903 0.432519C19.3251 0.292343 19.4863 0.181733 19.6641 0.107419C19.8419 0.0331046 20.0326 -0.0033601 20.2247 0.000243241H50.7522C50.9391 -0.00115068 51.1244 0.035861 51.2971 0.109091C51.4698 0.182321 51.6264 0.290283 51.7577 0.426597L51.8212 0.497656C52.0542 0.762602 52.1838 1.10622 52.1853 1.46288V17.7176H69.8096C69.9654 17.7159 70.1199 17.7465 70.2639 17.8075C70.4079 17.8686 70.5384 17.9589 70.6474 18.0729C70.7605 18.1849 70.8501 18.3193 70.9107 18.468C70.9713 18.6166 71.0016 18.7764 70.9999 18.9375V62.1651C70.9999 62.3865 70.9141 62.5989 70.7613 62.7555C70.6085 62.912 70.4013 63 70.1852 63H65.025V61.1702H69.2953V19.4645H52.1795V61.1465H50.394V1.82409H20.554V61.1465ZM9.49407 23.0944H5.09089C5.05622 23.0944 5.02154 23.1418 5.02154 23.201V26.1263C5.02154 26.1855 5.05622 26.2388 5.09089 26.2388H9.49407C9.52874 26.2388 9.56341 26.1914 9.56341 26.1263V23.1714C9.56341 23.1122 9.52874 23.0648 9.49407 23.0648V23.0944ZM9.49407 43.3877H5.09089C5.05622 43.3877 5.02154 43.441 5.02154 43.4943V46.4196C5.02154 46.4729 5.05622 46.5321 5.09089 46.5321H9.49407C9.52874 46.5321 9.56341 46.4788 9.56341 46.4196V43.4647C9.56341 43.4114 9.52874 43.3581 9.49407 43.3581V43.3877ZM16.9252 43.3877H12.522C12.4815 43.3877 12.4526 43.441 12.4526 43.4943V46.4196C12.4526 46.4729 12.4815 46.5321 12.522 46.5321H16.9252C16.9598 46.5321 16.9887 46.4788 16.9887 46.4196V43.4647C16.9887 43.4114 16.9887 43.3581 16.9252 43.3581V43.3877ZM9.49407 36.5897H5.09089C5.05622 36.5897 5.02154 36.643 5.02154 36.7022V39.6275C5.02154 39.6867 5.05622 39.74 5.09089 39.74H9.49407C9.52874 39.74 9.56341 39.6926 9.56341 39.6275V36.7141C9.56341 36.6489 9.52874 36.6016 9.49407 36.6016V36.5897ZM9.49407 29.8273H5.09089C5.05622 29.8273 5.02154 29.8746 5.02154 29.9398V32.865C5.02154 32.9183 5.05622 32.9776 5.09089 32.9776H9.49407C9.52874 32.9776 9.56341 32.9243 9.56341 32.865V29.9398C9.56341 29.8746 9.52874 29.8273 9.49407 29.8273ZM16.9252 23.0944H12.522C12.4815 23.0944 12.4526 23.1418 12.4526 23.201V26.1263C12.4526 26.1855 12.4815 26.2388 12.522 26.2388H16.9252C16.9598 26.2388 16.9887 26.1914 16.9887 26.1263V23.1714C16.9887 23.1122 16.9887 23.0648 16.9252 23.0648V23.0944ZM16.9252 36.6193H12.522C12.4815 36.6193 12.4526 36.6726 12.4526 36.7318V39.6571C12.4526 39.7163 12.4815 39.7696 12.522 39.7696H16.9252C16.9598 39.7696 16.9887 39.7222 16.9887 39.6571V36.7141C16.9887 36.6489 16.9887 36.6016 16.9252 36.6016V36.6193ZM16.9252 29.8569H12.522C12.4815 29.8569 12.4526 29.9043 12.4526 29.9694V32.865C12.4526 32.9183 12.4815 32.9776 12.522 32.9776H16.9252C16.9598 32.9776 16.9887 32.9243 16.9887 32.865V29.9398C16.9887 29.8746 16.9887 29.8273 16.9252 29.8273V29.8569ZM61.5117 23.0944H65.9149C65.9496 23.0944 65.9842 23.1418 65.9842 23.201V26.1263C65.9842 26.1855 65.9496 26.2388 65.9149 26.2388H61.5117C61.477 26.2388 61.4424 26.1914 61.4424 26.1263V23.1714C61.4424 23.1122 61.477 23.0648 61.5117 23.0648V23.0944ZM61.5117 43.3877H65.9149C65.9496 43.3877 65.9842 43.441 65.9842 43.4943V46.4196C65.9842 46.4729 65.9496 46.5321 65.9149 46.5321H61.5117C61.477 46.5321 61.4424 46.4788 61.4424 46.4196V43.4647C61.4424 43.4114 61.477 43.3581 61.5117 43.3581V43.3877ZM54.0806 43.3877H58.4838C58.5242 43.3877 58.5531 43.441 58.5531 43.4943V46.4196C58.5531 46.4729 58.5531 46.5321 58.4838 46.5321H54.0806C54.0459 46.5321 54.0171 46.4788 54.0171 46.4196V43.4647C54.0171 43.4114 54.0171 43.3581 54.0806 43.3581V43.3877ZM61.5117 36.6193H65.9149C65.9496 36.6193 65.9842 36.6726 65.9842 36.7318V39.6571C65.9842 39.7163 65.9496 39.7696 65.9149 39.7696H61.5117C61.477 39.7696 61.4424 39.7222 61.4424 39.6571V36.7141C61.4424 36.6489 61.477 36.6016 61.5117 36.6016V36.6193ZM61.5117 29.8569H65.9149C65.9496 29.8569 65.9842 29.9043 65.9842 29.9694V32.865C65.9842 32.9183 65.9496 32.9776 65.9149 32.9776H61.5117C61.477 32.9776 61.4424 32.9243 61.4424 32.865V29.9398C61.4424 29.8746 61.477 29.8273 61.5117 29.8273V29.8569ZM54.0806 23.0944H58.4838C58.5242 23.0944 58.5531 23.1418 58.5531 23.201V26.1263C58.5531 26.1855 58.5531 26.2388 58.4838 26.2388H54.0806C54.0459 26.2388 54.0171 26.1914 54.0171 26.1263V23.1714C54.0171 23.1122 54.0171 23.0648 54.0806 23.0648V23.0944ZM54.0806 36.6193H58.4838C58.5242 36.6193 58.5531 36.6726 58.5531 36.7318V39.6571C58.5531 39.7163 58.5531 39.7696 58.4838 39.7696H54.0806C54.0459 39.7696 54.0171 39.7222 54.0171 39.6571V36.7141C54.0171 36.6489 54.0171 36.6016 54.0806 36.6016V36.6193ZM54.0806 29.8569H58.4838C58.5242 29.8569 58.5531 29.9043 58.5531 29.9694V32.865C58.5531 32.9183 58.5531 32.9776 58.4838 32.9776H54.0806C54.0459 32.9776 54.0171 32.9243 54.0171 32.865V29.9398C54.0171 29.8746 54.0171 29.8273 54.0806 29.8273V29.8569ZM24.8474 6.41924H29.6378C29.6736 6.41921 29.708 6.43337 29.7338 6.45875C29.7597 6.48414 29.7749 6.51878 29.7764 6.55544V11.4704C29.7749 11.507 29.7597 11.5417 29.7338 11.567C29.708 11.5924 29.6736 11.6066 29.6378 11.6066H24.8474C24.8122 11.6066 24.7784 11.5922 24.7534 11.5667C24.7285 11.5411 24.7145 11.5065 24.7145 11.4704V6.55544C24.7145 6.51932 24.7285 6.48468 24.7534 6.45913C24.7784 6.43359 24.8122 6.41924 24.8474 6.41924ZM41.3218 6.41924H46.1121C46.1479 6.41921 46.1824 6.43337 46.2082 6.45875C46.234 6.48414 46.2493 6.51878 46.2508 6.55544V11.4704C46.2493 11.507 46.234 11.5417 46.2082 11.567C46.1824 11.5924 46.1479 11.6066 46.1121 11.6066H41.316C41.2802 11.6066 41.2458 11.5924 41.2199 11.567C41.1941 11.5417 41.1788 11.507 41.1773 11.4704V6.55544C41.1788 6.51878 41.1941 6.48414 41.2199 6.45875C41.2458 6.43337 41.2802 6.41921 41.316 6.41924H41.3218ZM33.0817 6.41924H37.8778C37.9131 6.41924 37.9469 6.43359 37.9718 6.45913C37.9967 6.48468 38.0107 6.51932 38.0107 6.55544V11.4704C38.0107 11.5065 37.9967 11.5411 37.9718 11.5667C37.9469 11.5922 37.9131 11.6066 37.8778 11.6066H33.0817C33.0469 11.6051 33.0139 11.5903 32.9893 11.565C32.9647 11.5398 32.9502 11.506 32.9488 11.4704V6.55544C32.9502 6.51978 32.9647 6.48598 32.9893 6.46075C33.0139 6.43552 33.0469 6.4207 33.0817 6.41924ZM24.8474 17.0544H29.6378C29.6745 17.0544 29.7098 17.0694 29.7358 17.096C29.7618 17.1227 29.7764 17.1588 29.7764 17.1965V22.1055C29.7764 22.1242 29.7729 22.1427 29.7659 22.1599C29.7589 22.1772 29.7487 22.1928 29.7358 22.206C29.7229 22.2192 29.7077 22.2297 29.6908 22.2368C29.674 22.244 29.656 22.2476 29.6378 22.2476H24.8474C24.8295 22.2477 24.8117 22.244 24.7952 22.2367C24.7787 22.2295 24.7638 22.219 24.7513 22.2057C24.7389 22.1924 24.7293 22.1767 24.7229 22.1595C24.7166 22.1423 24.7137 22.1239 24.7145 22.1055V17.1728C24.7187 17.1399 24.7346 17.1096 24.7591 17.0878C24.7836 17.066 24.815 17.0541 24.8474 17.0544ZM41.3218 17.0544H46.1121C46.1411 17.0591 46.168 17.073 46.1887 17.0943C46.2095 17.1156 46.2232 17.1431 46.2277 17.1728V22.0818C46.2277 22.1195 46.2131 22.1557 46.1871 22.1823C46.1611 22.209 46.1258 22.224 46.089 22.224H41.316C41.2792 22.224 41.244 22.209 41.2179 22.1823C41.1919 22.1557 41.1773 22.1195 41.1773 22.0818V17.1728C41.1773 17.1352 41.1919 17.099 41.2179 17.0723C41.244 17.0457 41.2792 17.0307 41.316 17.0307L41.3218 17.0544ZM33.0817 17.0544H37.8778C37.8958 17.0544 37.9135 17.0581 37.9301 17.0653C37.9466 17.0725 37.9615 17.0831 37.9739 17.0964C37.9863 17.1097 37.996 17.1254 38.0023 17.1426C38.0087 17.1598 38.0115 17.1782 38.0107 17.1965V22.1055C38.0115 22.1239 38.0087 22.1423 38.0023 22.1595C37.996 22.1767 37.9863 22.1924 37.9739 22.2057C37.9615 22.219 37.9466 22.2295 37.9301 22.2367C37.9135 22.244 37.8958 22.2477 37.8778 22.2476H33.0817C33.0459 22.2461 33.0121 22.2305 32.9874 22.204C32.9626 22.1775 32.9488 22.1422 32.9488 22.1055V17.1728C32.9488 17.1362 32.9626 17.1009 32.9874 17.0744C33.0121 17.0479 33.0459 17.0323 33.0817 17.0307V17.0544ZM24.8474 38.3307H29.6378C29.6745 38.3307 29.7098 38.3456 29.7358 38.3723C29.7618 38.3989 29.7764 38.4351 29.7764 38.4728V43.3818C29.7764 43.4195 29.7618 43.4556 29.7358 43.4823C29.7098 43.5089 29.6745 43.5239 29.6378 43.5239H24.8474C24.8295 43.5239 24.8117 43.5202 24.7952 43.513C24.7787 43.5058 24.7638 43.4952 24.7513 43.4819C24.7389 43.4687 24.7293 43.4529 24.7229 43.4357C24.7166 43.4185 24.7137 43.4002 24.7145 43.3818V38.4906C24.7137 38.4722 24.7166 38.4538 24.7229 38.4366C24.7293 38.4194 24.7389 38.4037 24.7513 38.3904C24.7638 38.3771 24.7787 38.3666 24.7952 38.3593C24.8117 38.3521 24.8295 38.3484 24.8474 38.3484V38.3307ZM41.3218 38.3307H46.1121C46.148 38.3365 46.1802 38.3565 46.2018 38.3864C46.2234 38.4163 46.2327 38.4537 46.2277 38.4906V43.3995C46.2277 43.4372 46.2131 43.4734 46.1871 43.5C46.1611 43.5267 46.1258 43.5417 46.089 43.5417H41.316C41.2792 43.5417 41.244 43.5267 41.2179 43.5C41.1919 43.4734 41.1773 43.4372 41.1773 43.3995V38.4906C41.1773 38.4529 41.1919 38.4167 41.2179 38.3901C41.244 38.3634 41.2792 38.3484 41.316 38.3484L41.3218 38.3307ZM33.0817 38.3307H37.8778C37.8958 38.3307 37.9135 38.3344 37.9301 38.3416C37.9466 38.3488 37.9615 38.3594 37.9739 38.3726C37.9863 38.3859 37.996 38.4016 38.0023 38.4188C38.0087 38.4361 38.0115 38.4544 38.0107 38.4728V43.3818C38.0115 43.4002 38.0087 43.4185 38.0023 43.4357C37.996 43.4529 37.9863 43.4687 37.9739 43.4819C37.9615 43.4952 37.9466 43.5058 37.9301 43.513C37.9135 43.5202 37.8958 43.5239 37.8778 43.5239H33.0817C33.0459 43.5224 33.0121 43.5067 32.9874 43.4802C32.9626 43.4537 32.9488 43.4185 32.9488 43.3818V38.4906C32.9488 38.4539 32.9626 38.4186 32.9874 38.3921C33.0121 38.3656 33.0459 38.35 33.0817 38.3484V38.3307ZM24.8474 27.6955H29.6378C29.6736 27.6955 29.708 27.7096 29.7338 27.735C29.7597 27.7604 29.7749 27.795 29.7764 27.8317V32.7466C29.7765 32.765 29.7728 32.7832 29.7658 32.8001C29.7588 32.8171 29.7484 32.8323 29.7355 32.8451C29.7225 32.8578 29.7072 32.8677 29.6904 32.8742C29.6736 32.8807 29.6557 32.8836 29.6378 32.8828H24.8474C24.8122 32.8828 24.7784 32.8685 24.7534 32.8429C24.7285 32.8174 24.7145 32.7827 24.7145 32.7466V27.8317C24.7145 27.7956 24.7285 27.7609 24.7534 27.7354C24.7784 27.7099 24.8122 27.6955 24.8474 27.6955ZM41.3218 27.6955H46.1121C46.1438 27.701 46.1726 27.7175 46.1937 27.7424C46.2148 27.7672 46.2268 27.7988 46.2277 27.8317V32.7466C46.2277 32.765 46.2241 32.7832 46.2171 32.8001C46.21 32.8171 46.1997 32.8323 46.1868 32.8451C46.1738 32.8578 46.1584 32.8677 46.1417 32.8742C46.1249 32.8807 46.1069 32.8836 46.089 32.8828H41.316C41.2981 32.8836 41.2802 32.8807 41.2634 32.8742C41.2466 32.8677 41.2312 32.8578 41.2183 32.8451C41.2053 32.8323 41.195 32.8171 41.188 32.8001C41.1809 32.7832 41.1773 32.765 41.1773 32.7466V27.8317C41.1788 27.795 41.1941 27.7604 41.2199 27.735C41.2458 27.7096 41.2802 27.6955 41.316 27.6955H41.3218ZM33.0817 27.6955H37.8778C37.9131 27.6955 37.9469 27.7099 37.9718 27.7354C37.9967 27.7609 38.0107 27.7956 38.0107 27.8317V32.7466C38.0107 32.7827 37.9967 32.8174 37.9718 32.8429C37.9469 32.8685 37.9131 32.8828 37.8778 32.8828H33.0817C33.0633 32.8845 33.0448 32.8822 33.0273 32.8761C33.0098 32.8699 32.9938 32.8602 32.9802 32.8474C32.9666 32.8345 32.9557 32.819 32.9484 32.8016C32.941 32.7843 32.9372 32.7655 32.9373 32.7466V27.8317C32.9387 27.796 32.9531 27.7622 32.9778 27.737C33.0024 27.7118 33.0354 27.697 33.0702 27.6955H33.0817Z" fill="#EF4040"/>
</svg>
